<?xml version="1.0" encoding="utf-8"?>
<!-- Generator: Adobe Illustrator 15.1.0, SVG Export Plug-In  -->
<!DOCTYPE svg PUBLIC "-//W3C//DTD SVG 1.1//EN" "http://www.w3.org/Graphics/SVG/1.1/DTD/svg11.dtd" [
	<!ENTITY ns_flows "http://ns.adobe.com/Flows/1.0/">
]>
<svg version="1.1"
	 xmlns="http://www.w3.org/2000/svg" xmlns:xlink="http://www.w3.org/1999/xlink" xmlns:a="http://ns.adobe.com/AdobeSVGViewerExtensions/3.0/"
	 x="0px" y="0px" width="200px" height="100px" viewBox="0 0 200 100" overflow="visible" enable-background="new 0 0 200 100"
	 xml:space="preserve">
<defs>
</defs>
<g>
	<path fill="#333333" d="M198,2v96H2V2H198 M200,0H0v100h200V0L200,0z"/>
</g>
<g>
	<path d="M75.893,55.33c0.336,0.69,0.798,1.241,1.386,1.651c0.588,0.411,1.283,0.705,2.086,0.882
		c0.803,0.178,1.661,0.266,2.576,0.266c0.522,0,1.092-0.074,1.708-0.224c0.616-0.149,1.19-0.388,1.722-0.714
		c0.532-0.326,0.975-0.746,1.33-1.26s0.532-1.135,0.532-1.862c0-0.56-0.126-1.045-0.378-1.456c-0.252-0.41-0.579-0.756-0.98-1.035
		c-0.402-0.281-0.845-0.509-1.33-0.687c-0.486-0.177-0.961-0.322-1.428-0.434l-4.452-1.092c-0.579-0.149-1.144-0.336-1.694-0.56
		c-0.551-0.224-1.031-0.522-1.442-0.896s-0.742-0.831-0.994-1.372c-0.252-0.542-0.378-1.204-0.378-1.988
		c0-0.485,0.093-1.054,0.28-1.708c0.186-0.653,0.536-1.269,1.05-1.848c0.513-0.579,1.218-1.068,2.114-1.47
		c0.896-0.401,2.044-0.602,3.444-0.602c0.989,0,1.932,0.131,2.828,0.392c0.896,0.262,1.68,0.654,2.352,1.176
		c0.672,0.523,1.208,1.172,1.61,1.946c0.401,0.775,0.602,1.676,0.602,2.702h-1.904c-0.038-0.766-0.21-1.433-0.518-2.002
		c-0.308-0.569-0.709-1.045-1.204-1.428c-0.495-0.382-1.064-0.672-1.708-0.868c-0.644-0.196-1.321-0.294-2.03-0.294
		c-0.653,0-1.284,0.07-1.89,0.21c-0.607,0.14-1.139,0.364-1.596,0.672c-0.458,0.308-0.826,0.714-1.106,1.218
		c-0.28,0.504-0.42,1.129-0.42,1.876c0,0.467,0.079,0.873,0.238,1.218c0.158,0.346,0.378,0.64,0.658,0.882
		c0.28,0.243,0.602,0.439,0.966,0.588c0.364,0.149,0.751,0.271,1.162,0.364l4.872,1.204c0.709,0.187,1.376,0.416,2.002,0.686
		c0.625,0.271,1.176,0.607,1.652,1.008s0.849,0.892,1.12,1.47c0.271,0.579,0.406,1.279,0.406,2.1c0,0.225-0.023,0.523-0.07,0.896
		c-0.047,0.373-0.159,0.77-0.336,1.189c-0.178,0.42-0.43,0.846-0.756,1.274c-0.327,0.43-0.775,0.817-1.344,1.162
		c-0.57,0.346-1.274,0.626-2.114,0.84c-0.84,0.214-1.848,0.322-3.024,0.322c-1.176,0-2.268-0.136-3.276-0.406
		c-1.008-0.271-1.867-0.687-2.576-1.245c-0.71-0.561-1.256-1.279-1.638-2.156c-0.383-0.877-0.546-1.933-0.49-3.164h1.904
		C75.397,53.78,75.556,54.639,75.893,55.33z"/>
	<path d="M91.992,39.341l6.496,17.892h0.056l6.439-17.892h2.018L99.58,59.334h-2.212l-7.392-19.993H91.992z"/>
	<path d="M124.472,59.334l-0.252-3.641h-0.056c-0.336,0.71-0.752,1.32-1.246,1.834c-0.495,0.514-1.041,0.934-1.638,1.26
		c-0.598,0.327-1.237,0.564-1.918,0.715c-0.682,0.148-1.387,0.224-2.114,0.224c-1.568,0-2.944-0.284-4.13-0.854
		c-1.186-0.568-2.17-1.33-2.954-2.281c-0.784-0.952-1.372-2.054-1.764-3.305c-0.393-1.25-0.588-2.566-0.588-3.948
		c0-1.381,0.195-2.697,0.588-3.948c0.392-1.25,0.979-2.356,1.764-3.318c0.784-0.961,1.769-1.726,2.954-2.296
		c1.186-0.569,2.562-0.854,4.13-0.854c1.045,0,2.034,0.14,2.968,0.42c0.934,0.28,1.765,0.7,2.492,1.26
		c0.729,0.56,1.344,1.251,1.848,2.072c0.504,0.822,0.85,1.783,1.036,2.884h-1.903c-0.057-0.579-0.248-1.162-0.574-1.75
		c-0.327-0.588-0.766-1.125-1.316-1.61c-0.551-0.485-1.209-0.882-1.974-1.19c-0.766-0.308-1.624-0.462-2.576-0.462
		c-1.325,0-2.464,0.252-3.416,0.756c-0.952,0.504-1.731,1.172-2.338,2.002s-1.055,1.769-1.344,2.814
		c-0.29,1.045-0.435,2.119-0.435,3.22c0,1.083,0.145,2.152,0.435,3.206c0.289,1.055,0.737,1.998,1.344,2.828
		c0.606,0.831,1.386,1.498,2.338,2.002s2.091,0.756,3.416,0.756c1.102,0,2.086-0.182,2.954-0.545
		c0.868-0.364,1.601-0.873,2.198-1.526c0.597-0.653,1.045-1.429,1.344-2.324c0.298-0.896,0.438-1.876,0.42-2.94h-6.804v-1.624h8.483
		v10.165H124.472z"/>
</g>
</svg>
